<?xml version="1.0" encoding="UTF-8" standalone="no"?>
<svg
   xmlns:osb="http://www.openswatchbook.org/uri/2009/osb"
   xmlns:dc="http://purl.org/dc/elements/1.1/"
   xmlns:cc="http://creativecommons.org/ns#"
   xmlns:rdf="http://www.w3.org/1999/02/22-rdf-syntax-ns#"
   xmlns:svg="http://www.w3.org/2000/svg"
   xmlns="http://www.w3.org/2000/svg"
   xmlns:sodipodi="http://sodipodi.sourceforge.net/DTD/sodipodi-0.dtd"
   xmlns:inkscape="http://www.inkscape.org/namespaces/inkscape"
   width="16"
   height="16"
   viewBox="0 0 4.2333332 4.2333335"
   version="1.1"
   id="svg8"
   inkscape:version="1.0.1 (3bc2e81, 2020-09-07)"
   sodipodi:docname="send-beige.svg">
  <defs
     id="defs2">
    <linearGradient
       inkscape:collect="always"
       id="linearGradient865"
       osb:paint="gradient">
      <stop
         style="stop-color:#000000;stop-opacity:1;"
         offset="0"
         id="stop861" />
      <stop
         style="stop-color:#000000;stop-opacity:0;"
         offset="1"
         id="stop863" />
    </linearGradient>
    <meshgradient
       inkscape:collect="always"
       id="meshgradient2923"
       gradientUnits="userSpaceOnUse"
       x="0.022772085"
       y="0.030100536">
      <meshrow
         id="meshrow2925">
        <meshpatch
           id="meshpatch2927">
          <stop
             path="c 5.32246,0  10.6449,0  15.9674,0"
             style="stop-color:#ffffff;stop-opacity:1"
             id="stop2929" />
          <stop
             path="c 0,5.31639  0,10.6328  0,15.9492"
             style="stop-color:#b09c5a;stop-opacity:1"
             id="stop2931" />
          <stop
             path="c -5.32246,0  -10.6449,0  -15.9674,0"
             style="stop-color:#ffffff;stop-opacity:1"
             id="stop2933" />
          <stop
             path="c 0,-5.31639  0,-10.6328  0,-15.9492"
             style="stop-color:#b09c5a;stop-opacity:1"
             id="stop2935" />
        </meshpatch>
      </meshrow>
    </meshgradient>
  </defs>
  <sodipodi:namedview
     id="base"
     pagecolor="#ffffff"
     bordercolor="#666666"
     borderopacity="1.0"
     inkscape:pageopacity="0.0"
     inkscape:pageshadow="2"
     inkscape:zoom="31.562537"
     inkscape:cx="11.948983"
     inkscape:cy="7.9999922"
     inkscape:document-units="mm"
     inkscape:current-layer="layer1"
     inkscape:document-rotation="0"
     showgrid="false"
     units="px"
     fit-margin-top="0"
     fit-margin-left="0"
     fit-margin-right="0"
     fit-margin-bottom="0"
     inkscape:window-width="1366"
     inkscape:window-height="741"
     inkscape:window-x="0"
     inkscape:window-y="0"
     inkscape:window-maximized="1" />
  <metadata
     id="metadata5">
    <rdf:RDF>
      <cc:Work
         rdf:about="">
        <dc:format>image/svg+xml</dc:format>
        <dc:type
           rdf:resource="http://purl.org/dc/dcmitype/StillImage" />
        <dc:title></dc:title>
      </cc:Work>
    </rdf:RDF>
  </metadata>
  <g
     inkscape:label="Capa 1"
     inkscape:groupmode="layer"
     id="layer1"
     transform="translate(-65.785912,-92.027451)">
    <path
       style="opacity:0.92;fill:#000000;stroke:#000000;stroke-width:0.149318;stroke-linecap:butt;stroke-linejoin:miter;stroke-miterlimit:4;stroke-dasharray:none;stroke-opacity:1"
       d="M 66.6332,93.840141 65.891464,92.23321 c 0,0 -0.04629,-0.188888 0.103092,-0.112553 0.149422,0.0763 3.909048,1.952452 3.909048,1.952452 0,0 0.115081,0.101779 -0.0359,0.171634 -0.15092,0.06983 -3.845925,1.904046 -3.845925,1.904046 0,0 -0.287927,0.167966 -0.09419,-0.21109 0.193754,-0.379059 0.687593,-1.473559 0.718699,-1.505658 0.03115,-0.03206 1.881537,-0.208604 1.881537,-0.208604 0,0 0.08449,-0.08413 0.0047,-0.118692 -0.07976,-0.03455 -1.899433,-0.264598 -1.899433,-0.264598 z"
       id="path849" />
    <circle
       id="path853"
       style="fill:#000000;stroke:#000000;stroke-width:0.264583"
       cx="66.606148"
       cy="93.788918"
       r="0.00029512082" />
    <circle
       id="path875"
       style="fill:#ececec;stroke:#000000;stroke-width:0.264583"
       cx="64.943497"
       cy="94.080772"
       r="5.9024162e-05" />
    <path
       style="opacity:0.92;fill:#ececec;fill-opacity:1;stroke:#000000;stroke-width:0.0264583;stroke-miterlimit:4;stroke-dasharray:none"
       id="path883"
       d="m 66.616068,93.855621 c -2.59e-4,0.0014 -8.04e-4,0.0027 -0.0013,0.0041 0,0 0.0073,-0.0034 0.0073,-0.0034 v 0 c 5.27e-4,-0.0014 0.001,-0.0027 0.0014,-0.0041 0,0 -0.0074,0.0035 -0.0074,0.0035 z" />
    <path
       style="opacity:0.92;fill:#ececec;fill-opacity:1;stroke:#000000;stroke-width:0.0264583;stroke-miterlimit:4;stroke-dasharray:none"
       id="path887"
       d="m 66.595712,93.858136 c 0.0043,0.0027 0.0073,0.0072 0.01066,0.01091 0.0021,0.0024 0.0045,0.0044 0.007,0.0063 0,0 0.0066,-0.0042 0.0066,-0.0042 v 0 c -0.0025,-0.0019 -0.0049,-0.0038 -0.007,-0.0062 -0.0033,-0.0036 -0.0014,-0.0014 -0.0046,-0.0052 -0.0016,-0.0019 -0.0032,-0.004 -0.0051,-0.0056 -2.4e-4,-2.06e-4 -5.35e-4,-3.36e-4 -8.02e-4,-5.05e-4 0,0 -0.0068,0.0045 -0.0068,0.0045 z" />
    <path
       style="fill:none;stroke:#000000;stroke-width:0.02645833;stroke-linecap:butt;stroke-linejoin:miter;stroke-opacity:1;stroke-miterlimit:4;stroke-dasharray:none"
       d="m 66.560288,93.827071 c 0,0 1.34e-4,0.04964 0.08913,0.071"
       id="path891" />
    <path
       style="opacity:0.92;fill:#000000;fill-opacity:0.921569;stroke:#000000;stroke-width:0.000390625;stroke-miterlimit:4;stroke-dasharray:none;paint-order:fill markers stroke"
       d="M 3.2153381,7.1092097 C 3.1482185,7.0890544 3.0655741,7.0509761 3.0210092,7.019673 2.9390685,6.9621163 2.8973632,6.9019027 2.877714,6.8127848 l -0.00237,-0.010742 h 0.050142 0.050142 l 0.00659,0.020905 c 0.00784,0.024863 0.031184,0.061674 0.051112,0.08059 l 0.014333,0.013605 -0.00601,-0.017025 c -0.0033,-0.00936 -0.00601,-0.018497 -0.00601,-0.020295 0,-0.00406 0.044846,-0.034811 0.050774,-0.034811 0.00238,0 0.01054,0.00422 0.018133,0.00938 l 0.013805,0.00938 0.035792,-0.016754 c 0.019686,-0.00922 0.047121,-0.022176 0.060966,-0.028803 0.013846,-0.00663 0.025667,-0.011556 0.02627,-0.010953 6.027e-4,6.027e-4 -0.00696,0.028239 -0.016805,0.061414 -0.00985,0.033175 -0.018721,0.063882 -0.019723,0.068238 -0.00137,0.00596 0.0026,0.011099 0.016044,0.020751 0.00983,0.00706 0.017867,0.013338 0.017867,0.013958 0,6.196e-4 -0.00923,0.00691 -0.020508,0.013989 l -0.020508,0.012862 0.021484,0.00704 c 0.011816,0.00387 0.028955,0.00896 0.038086,0.01131 0.00913,0.00235 0.016556,0.0064 0.016501,0.009 -2.527e-4,0.011877 -0.022149,0.090249 -0.025469,0.091159 -0.00205,5.62e-4 -0.016911,-0.00294 -0.033025,-0.00778 z M 3.1723693,6.9759545 c 0,-0.013326 -2.074e-4,-0.0135 -0.010742,-0.00902 -0.017794,0.00756 -0.018591,0.010425 -0.00459,0.016501 0.00736,0.00319 0.013818,0.00587 0.014355,0.00596 5.372e-4,8.41e-5 9.766e-4,-0.00596 9.766e-4,-0.013435 z m -0.092237,-0.050502 c 0.0013,-0.00517 0.00347,-0.012287 0.00482,-0.015812 0.00207,-0.00539 -3.607e-4,-0.00504 -0.015278,0.00221 l -0.017738,0.00862 0.00846,0.00706 c 0.011528,0.00963 0.016942,0.00906 0.019737,-0.00208 z m 0.097201,-0.06069 c -6.978e-4,-9.531e-4 -0.010038,0.00256 -0.020756,0.00781 l -0.019487,0.00955 0.018616,0.021316 0.018616,0.021316 0.00214,-0.029128 c 0.00118,-0.016021 0.00157,-0.029908 8.713e-4,-0.030861 z m -0.055746,0.035354 c 0,-0.00642 -0.01088,-0.00775 -0.018175,-0.00223 -0.00666,0.00505 -0.00624,0.00548 0.00548,0.00559 0.00698,6.83e-5 0.012695,-0.00145 0.012695,-0.00336 z"
       id="path893"
       transform="matrix(0.26458333,0,0,0.26458333,65.785912,92.027451)" />
    <path
       style="opacity:0.92;fill:#000000;fill-opacity:0.921569;stroke:#000000;stroke-width:0.000390625;stroke-miterlimit:4;stroke-dasharray:none;paint-order:fill markers stroke"
       d="m 3.2075256,7.1070594 c -0.1867947,-0.0614 -0.2900687,-0.1475732 -0.32412,-0.2704515 -0.00435,-0.015702 -0.00791,-0.029903 -0.00791,-0.031557 0,-0.00165 0.022818,-0.00301 0.050707,-0.00301 h 0.050707 l 0.00253,0.010742 c 0.00465,0.019741 0.028809,0.061678 0.046806,0.081237 0.00998,0.010844 0.016696,0.015915 0.015285,0.011536 -0.00811,-0.02518 -0.00737,-0.028164 0.010303,-0.041105 0.028698,-0.02102 0.032208,-0.021797 0.051721,-0.011445 l 0.01729,0.00917 0.05944,-0.028294 c 0.032692,-0.015561 0.060251,-0.027483 0.061241,-0.026493 9.905e-4,9.905e-4 -0.00709,0.031393 -0.017955,0.067561 l -0.019756,0.06576 0.017955,0.015944 0.017955,0.015944 -0.018044,0.0114 c -0.00992,0.00627 -0.018047,0.012447 -0.018051,0.013726 -3.8e-6,0.00128 0.015813,0.00707 0.035149,0.012876 0.041146,0.012348 0.039792,0.00857 0.023947,0.066809 -0.00691,0.025388 -0.012611,0.039308 -0.016308,0.039801 -0.00313,4.174e-4 -0.020627,-0.00415 -0.038889,-0.010155 z M 3.1723693,6.9778238 c 0,-0.012861 -0.00579,-0.01496 -0.017552,-0.00636 -0.00697,0.00509 -0.00676,0.00566 0.00414,0.011562 0.0063,0.00341 0.011902,0.00628 0.012439,0.00636 5.372e-4,8.6e-5 9.766e-4,-0.00512 9.766e-4,-0.011562 z m -0.091665,-0.059509 c 0.00259,-0.010497 0.00243,-0.010608 -0.0095,-0.00645 -0.016163,0.00563 -0.017889,0.00953 -0.00746,0.016829 0.00986,0.00691 0.013193,0.00487 0.016958,-0.010378 z m 0.095571,-0.026212 v -0.027127 l -0.019378,0.00805 -0.019378,0.00805 0.016083,0.019074 c 0.00885,0.010491 0.017566,0.019074 0.019378,0.019074 0.00181,0 0.00329,-0.012207 0.00329,-0.027127 z m -0.058594,0.0076 c 0,-0.00215 -0.00253,-0.00391 -0.00563,-0.00391 -0.0031,0 -0.00672,0.00176 -0.00804,0.00391 -0.00133,0.00215 0.00121,0.00391 0.00563,0.00391 0.00442,0 0.00804,-0.00176 0.00804,-0.00391 z"
       id="path895"
       transform="matrix(0.26458333,0,0,0.26458333,65.785912,92.027451)" />
    <path
       style="opacity:0.92;fill:#000000;fill-opacity:0.921569;stroke:#000000;stroke-width:0.000390625;stroke-miterlimit:4;stroke-dasharray:none;paint-order:fill markers stroke"
       d="M 5.6235412,7.4461816 C 5.391035,7.4149362 4.0972072,7.2477275 3.4348061,7.1633191 3.2923299,7.1451636 3.174117,7.1292946 3.1721108,7.1280547 c -0.00201,-0.00124 -0.00365,-0.00908 -0.00365,-0.017412 v -0.015157 l 0.018555,0.00625 c 0.010205,0.00343 0.019434,0.00728 0.020508,0.00855 0.00107,0.00127 0.00547,0.00249 0.00977,0.00272 0.0043,2.246e-4 0.01418,0.0017 0.021962,0.00327 0.013866,0.00281 0.014203,0.00258 0.016779,-0.011151 0.00179,-0.00953 0.00476,-0.014032 0.00929,-0.014073 0.00507,-4.57e-5 0.00543,-8.385e-4 0.00152,-0.00332 -0.00422,-0.00267 -0.00404,-0.0075 9.766e-4,-0.026871 0.010093,-0.038949 0.010527,-0.038141 -0.027085,-0.05039 -0.018262,-0.00595 -0.033203,-0.011975 -0.033203,-0.013395 0,-0.00142 0.0074,-0.00748 0.016437,-0.013459 l 0.016437,-0.010877 -0.016437,-0.014587 c -0.00904,-0.00802 -0.016437,-0.016876 -0.016437,-0.019674 0,-0.0028 0.00809,-0.032993 0.017983,-0.067098 0.00989,-0.034106 0.017129,-0.062864 0.016085,-0.063908 -0.00104,-0.00104 -0.028853,0.010602 -0.061799,0.02588 l -0.059901,0.027778 -0.014333,-0.00806 c -0.00788,-0.00443 -0.016895,-0.00806 -0.020027,-0.00806 -0.00313,0 -0.016356,0.00716 -0.029387,0.01591 -0.023051,0.015479 -0.023597,0.016246 -0.020142,0.028295 0.00487,0.016964 0.00487,0.016962 -0.00674,0.00628 -0.014721,-0.01354 -0.036408,-0.048351 -0.044599,-0.071588 l -0.00702,-0.019913 H 2.9247495 2.8718558 L 2.7857365,6.6173285 c -0.047366,-0.102667 -0.086537,-0.1887998 -0.087048,-0.1914063 -5.108e-4,-0.00261 -0.00195,-0.00562 -0.0032,-0.00669 -0.00279,-0.0024 -0.6442121,-1.3921833 -0.6442121,-1.39583 0,-0.00143 0.8296875,-0.00261 1.84375,-0.00261 h 1.84375 v 1.2207031 c 0,0.6713867 -4.395e-4,1.2205245 -9.766e-4,1.2203061 -5.371e-4,-2.183e-4 -0.051953,-0.00725 -0.1142586,-0.01562 z"
       id="path897"
       transform="matrix(0.26458333,0,0,0.26458333,65.785912,92.027451)" />
    <path
       style="opacity:0.92;fill:#000000;fill-opacity:0.921569;stroke:#000000;stroke-width:0.000390625;stroke-miterlimit:4;stroke-dasharray:none;paint-order:fill markers stroke"
       d="m 3.1532676,6.8992397 c -0.00728,-0.00846 -0.012557,-0.01599 -0.011719,-0.016743 8.38e-4,-7.53e-4 0.00908,-0.00518 0.018316,-0.00984 l 0.016793,-0.00847 -0.00117,0.024281 c -6.422e-4,0.013355 -0.00293,0.0247 -0.00507,0.025212 -0.00215,5.123e-4 -0.00987,-0.00599 -0.017149,-0.014442 z"
       id="path899"
       transform="matrix(0.26458333,0,0,0.26458333,65.785912,92.027451)" />
    <path
       style="opacity:0.92;fill:#000000;fill-opacity:0.921569;stroke:#000000;stroke-width:0.000390625;stroke-miterlimit:4;stroke-dasharray:none;paint-order:fill markers stroke"
       d="M 5.5766662,7.4401733 C 5.3446199,7.4089403 3.3894356,7.156275 3.1870177,7.1313629 l -0.018555,-0.00228 V 7.1110489 7.0930184 L 3.144049,7.0836681 C 3.1050414,7.0687286 3.0476818,7.0387451 3.0179744,7.0177654 2.9453835,6.9665006 2.9086884,6.9173396 2.8831946,6.8371988 2.8773853,6.8189371 2.7666381,6.5746012 2.6370897,6.2942301 2.5075413,6.013859 2.3229105,5.6139567 2.2267991,5.4055582 L 2.052051,5.026652 2.0838899,5.02411 C 2.1014009,5.02271 2.9309142,5.02139 3.9272521,5.02118 l 1.8115235,-3.877e-4 v 1.2207031 c 0,0.6713867 -0.00132,1.2204794 -0.00293,1.2202059 -0.00161,-2.735e-4 -0.073242,-0.00996 -0.1591794,-0.021528 z M 3.1723693,6.9780544 c 0,-0.010479 -0.00529,-0.012748 -0.014073,-0.00604 -0.00643,0.00491 -0.00663,0.00618 -0.00155,0.00958 0.00922,0.00617 0.015625,0.00472 0.015625,-0.00354 z m -0.093272,-0.058049 c 0.0038,-0.010269 -0.00289,-0.011572 -0.014379,-0.0028 -0.00656,0.00501 -0.00679,0.00631 -0.00172,0.0097 0.00788,0.00527 0.012301,0.00338 0.016103,-0.0069 z m 0.037527,-0.022667 c -0.0013,-0.0013 -0.00467,-0.00144 -0.00749,-3.082e-4 -0.00312,0.00125 -0.00219,0.00217 0.00236,0.00236 0.00412,1.695e-4 0.00642,-7.536e-4 0.00513,-0.00205 z"
       id="path901"
       transform="matrix(0.26458333,0,0,0.26458333,65.785912,92.027451)" />
    <path
       style="opacity:0.92;fill:#000000;fill-opacity:0.921569;stroke:#000000;stroke-width:0.000390625;stroke-miterlimit:4;stroke-dasharray:none;paint-order:fill markers stroke"
       d="M 5.7114318,7.4580226 C 5.6472419,7.4483914 4.2238912,7.2640495 3.5571349,7.179014 3.3960021,7.1584638 3.242633,7.1388266 3.2163146,7.1353758 l -0.047852,-0.00627 v -0.01838 c 0,-0.017947 -3.551e-4,-0.018486 -0.015075,-0.022897 -0.00829,-0.00248 -0.035977,-0.014871 -0.061523,-0.027526 C 2.9765752,7.0031868 2.9131718,6.9362183 2.8843397,6.8411051 2.8755437,6.8120884 2.854017,6.7650009 2.391461,5.7629801 L 2.0515549,5.026652 2.0797359,5.024232 c 0.015499,-0.00133 0.845124,-0.00265 1.8436104,-0.00293 L 5.738776,5.0207915 v 1.2207031 c 0,0.6713867 -0.00132,1.2204888 -0.00293,1.2202268 -0.00161,-2.621e-4 -0.012598,-0.00193 -0.024414,-0.0037 z M 3.1723693,6.9756402 c 0,-0.00622 -0.013837,-0.00778 -0.01743,-0.00196 -0.00258,0.00417 0.00982,0.012296 0.014417,0.00945 0.00166,-0.00102 0.00301,-0.0044 0.00301,-0.00749 z m -0.09561,-0.052798 c 0.00341,-0.01074 4.45e-4,-0.013033 -0.00978,-0.00756 -0.00673,0.0036 -0.00748,0.00561 -0.00376,0.010082 0.00643,0.00775 0.010522,0.00699 0.013539,-0.00252 z"
       id="path903"
       transform="matrix(0.26458333,0,0,0.26458333,65.785912,92.027451)" />
    <path
       style="opacity:0.92;fill:#000000;fill-opacity:0.921569;stroke:#000000;stroke-width:0.000390625;stroke-miterlimit:4;stroke-dasharray:none;paint-order:fill markers stroke"
       d="m 3.1577209,6.9768473 c 8.952e-4,-0.00269 0.00397,-0.00488 0.00684,-0.00488 0.00286,0 0.00594,0.0022 0.00684,0.00488 9.683e-4,0.0029 -0.0018,0.00488 -0.00684,0.00488 -0.00503,0 -0.0078,-0.00198 -0.00684,-0.00488 z"
       id="path905"
       transform="matrix(0.26458333,0,0,0.26458333,65.785912,92.027451)" />
    <path
       style="opacity:0.92;fill:#000000;fill-opacity:0.921569;stroke:#000000;stroke-width:0.000390625;stroke-miterlimit:4;stroke-dasharray:none;paint-order:fill markers stroke"
       d="M 5.7231506,7.4598024 C 5.7087877,7.4561497 3.1852355,7.1301676 3.171321,7.1301676 c -0.00157,0 -0.00286,-0.00805 -0.00286,-0.017892 0,-0.017439 -4.209e-4,-0.018055 -0.016602,-0.024311 C 3.1179662,7.0748597 3.0503208,7.0399154 3.0229191,7.0213553 2.9539584,6.9746458 2.9127308,6.922329 2.8867434,6.8485516 2.8699404,6.8008486 2.8417296,6.7390586 2.387655,5.7553979 2.2027511,5.3548409 2.0524485,5.02613 2.0536494,5.0249291 c 0.0012,-0.0012 0.8308454,-0.00264 1.8436547,-0.00319 l 1.8414715,-0.00101 v 1.2207316 c 0,0.9742228 -9.861e-4,1.2206402 -0.00488,1.2202785 -0.00269,-2.492e-4 -0.00752,-0.00112 -0.010742,-0.00194 z M 3.0777689,6.9198336 c 0.00112,-0.00336 -7.588e-4,-0.00477 -0.00521,-0.00391 -0.00383,7.422e-4 -0.00775,0.00371 -0.00871,0.00661 -0.00112,0.00336 7.588e-4,0.00477 0.00521,0.00391 0.00383,-7.423e-4 0.00775,-0.00371 0.00871,-0.00661 z"
       id="path907"
       transform="matrix(0.26458333,0,0,0.26458333,65.785912,92.027451)" />
    <path
       style="opacity:0.92;fill:#000000;fill-opacity:0.921569;stroke:#000000;stroke-width:0.000390625;stroke-miterlimit:4;stroke-dasharray:none;paint-order:fill markers stroke"
       d="M 5.6294006,7.4479306 C 5.4724678,7.4262264 4.2712978,7.2706529 3.5532287,7.1790282 3.3920959,7.1584679 3.241303,7.1390632 3.2181334,7.1359067 c -0.02317,-0.00316 -0.043728,-0.00574 -0.045684,-0.00574 -0.00196,0 -0.00409,-0.00817 -0.00475,-0.018165 l -0.00119,-0.018165 -0.029297,-0.012311 C 3.0233629,7.0336845 2.9528488,6.9784775 2.9099597,6.9036051 2.9044216,6.8939371 2.8933186,6.8676783 2.8852863,6.8452522 2.8695573,6.8013366 2.8102252,6.6715477 2.3504846,5.6753739 2.1859648,5.3188897 2.0523646,5.0262139 2.0535952,5.0249833 c 0.00123,-0.00123 0.8308996,-0.00269 1.8437089,-0.00324 l 1.8414715,-0.00101 v 1.2207316 c 0,1.160194 -3.391e-4,1.2207061 -0.00684,1.2202155 -0.00376,-2.84e-4 -0.049902,-0.00647 -0.102539,-0.013752 z M 3.0747131,6.9213058 c 0,-0.00349 -0.00229,-0.00486 -0.00586,-0.00349 -0.00322,0.00124 -0.00586,0.00382 -0.00586,0.00574 0,0.00192 0.00264,0.00349 0.00586,0.00349 0.00322,0 0.00586,-0.00258 0.00586,-0.00574 z"
       id="path909"
       transform="matrix(0.26458333,0,0,0.26458333,65.785912,92.027451)" />
    <path
       style="opacity:0.92;fill:#000000;fill-opacity:0.921569;stroke:#000000;stroke-width:0.000390625;stroke-miterlimit:4;stroke-dasharray:none;paint-order:fill markers stroke"
       d="M 5.6430724,7.4500187 C 5.4755834,7.4268403 4.1825576,7.2594215 3.4907287,7.1713369 3.3295959,7.1508213 3.1912588,7.1330262 3.1833129,7.1317924 3.1693286,7.1296208 3.1688281,7.12898 3.1676879,7.1117877 l -0.00118,-0.017761 -0.042969,-0.018464 C 2.9951233,7.0203817 2.9223939,6.9515499 2.8878707,6.8525217 2.8814464,6.8340938 2.8591354,6.7813595 2.8382907,6.7353342 2.8090936,6.6708668 2.226095,5.4053627 2.0782605,5.0855509 2.0634412,5.0534921 2.0523325,5.0262461 2.0535745,5.025004 c 0.00124,-0.00124 0.8309203,-0.00271 1.8437296,-0.00326 l 1.8414715,-0.00101 v 1.2207316 c 0,1.1601551 -3.391e-4,1.2207111 -0.00684,1.2203176 -0.00376,-2.277e-4 -0.04375,-0.00552 -0.088867,-0.011766 z M 3.0727599,6.9231363 c 0.00133,-0.00215 5.527e-4,-0.00391 -0.00172,-0.00391 -0.00228,0 -0.00414,0.00176 -0.00414,0.00391 0,0.00215 7.751e-4,0.00391 0.00172,0.00391 9.475e-4,0 0.00281,-0.00176 0.00414,-0.00391 z"
       id="path911"
       transform="matrix(0.26458333,0,0,0.26458333,65.785912,92.027451)" />
    <path
       style="opacity:0.92;fill:#000000;fill-opacity:0.921569;stroke:#000000;stroke-width:0.000390625;stroke-miterlimit:4;stroke-dasharray:none;paint-order:fill markers stroke"
       d="M 5.6118224,7.4462676 C 5.4810263,7.4283802 5.4290515,7.4215584 4.9614318,7.3609016 4.484565,7.2990454 4.177087,7.2594438 3.6411193,7.1908522 3.3972717,7.1596452 3.1912588,7.1330856 3.1833129,7.1318306 c -0.01396,-0.0022 -0.014487,-0.00288 -0.015625,-0.01993 -0.00117,-0.017568 -0.00128,-0.01769 -0.024086,-0.026946 C 3.068205,7.0543512 3.0081967,7.0168366 2.9630094,6.9720556 2.9263493,6.9357252 2.9057712,6.9026454 2.8851932,6.8469645 2.8659978,6.7950246 2.850214,6.760392 2.4605973,5.9153238 2.2758631,5.5146402 2.1081878,5.1509243 2.0879855,5.1070663 2.0677833,5.0632082 2.0522844,5.0262942 2.0535434,5.025035 c 0.00126,-0.00126 0.8309514,-0.00274 1.8437607,-0.00329 l 1.8414715,-0.00101 v 1.2207316 1.2207316 l -0.00879,-4.866e-4 c -0.00483,-2.676e-4 -0.058008,-0.00722 -0.1181641,-0.015445 z"
       id="path913"
       transform="matrix(0.26458333,0,0,0.26458333,65.785912,92.027451)" />
    <path
       style="opacity:0.92;fill:#000000;fill-opacity:0.921569;stroke:#000000;stroke-width:0.000390625;stroke-miterlimit:4;stroke-dasharray:none;paint-order:fill markers stroke"
       d="M 5.6684631,7.453906 C 5.5361471,7.4352485 4.2636192,7.270392 3.5473693,7.1791175 3.3529357,7.1543401 3.1882389,7.1331289 3.1813763,7.1319815 c -0.011477,-0.00192 -0.012573,-0.00341 -0.013672,-0.018552 -0.00105,-0.014465 -0.00286,-0.017268 -0.014866,-0.023072 -0.00752,-0.00363 -0.035645,-0.017244 -0.0625,-0.030245 C 3.0104239,7.0214258 2.9487886,6.9695184 2.9148217,6.9122986 2.9062443,6.8978492 2.892366,6.8675699 2.8839812,6.8450113 2.8643141,6.7920989 2.8473845,6.7549088 2.5034481,6.0090738 2.0743041,5.0784644 2.0510261,5.0275525 2.0535307,5.0250478 c 0.00127,-0.00127 0.8309641,-0.00275 1.8437734,-0.00331 l 1.8414715,-0.00101 V 6.2414594 7.462191 l -0.00879,-4.284e-4 c -0.00483,-2.355e-4 -0.03252,-0.00377 -0.061523,-0.00786 z"
       id="path915"
       transform="matrix(0.26458333,0,0,0.26458333,65.785912,92.027451)" />
    <path
       style="opacity:0.92;fill:#000000;fill-opacity:0.921569;stroke:#000000;stroke-width:0.000390625;stroke-miterlimit:4;stroke-dasharray:none;paint-order:fill markers stroke"
       d="M 5.6079162,7.4462256 C 5.4551938,7.4252808 4.4664955,7.2970815 3.7739318,7.2084223 3.4548888,7.1675797 3.1881408,7.1331844 3.1811584,7.1319883 c -0.011285,-0.00193 -0.012695,-0.00359 -0.012695,-0.014923 0,-0.018492 -0.00596,-0.024003 -0.042969,-0.03973 C 3.0033896,7.0254468 2.9255266,6.9543108 2.8910583,6.8631537 2.8654226,6.7953558 2.8508097,6.7630198 2.5942384,6.2063395 2.4863061,5.9721598 2.3199182,5.6111429 2.2244877,5.4040796 2.1290571,5.1970164 2.0520699,5.0265086 2.0534051,5.0251734 c 0.00134,-0.00134 0.8310897,-0.00288 1.843899,-0.00343 l 1.8414715,-0.00101 V 6.241465 7.4621966 L 5.7280336,7.46171 C 5.7221236,7.4614424 5.6680726,7.45447 5.6079164,7.446223 Z"
       id="path917"
       transform="matrix(0.26458333,0,0,0.26458333,65.785912,92.027451)" />
    <path
       style="opacity:0.92;fill:#000000;fill-opacity:0.921569;stroke:#000000;stroke-width:0.000390625;stroke-miterlimit:4;stroke-dasharray:none;paint-order:fill markers stroke"
       d="M 5.5610412,7.4402377 C 5.3599896,7.4130508 4.5784951,7.3117413 3.8032287,7.2123626 3.4680724,7.1694001 3.1881408,7.133251 3.1811584,7.1320313 c -0.011277,-0.00197 -0.012695,-0.00364 -0.012695,-0.014966 0,-0.00701 -0.0022,-0.015494 -0.00488,-0.018851 -0.00269,-0.00336 -0.025332,-0.015237 -0.050325,-0.026401 C 2.9954908,7.0192106 2.9249764,6.9519194 2.8887979,6.8576164 2.861514,6.7864979 2.8503011,6.7618844 2.4301708,5.8508707 2.0677926,5.0650871 2.0507818,5.0277968 2.0534769,5.0251015 c 0.0013,-0.0013 0.8310179,-0.00281 1.8438272,-0.00336 l 1.8414715,-0.00101 v 1.2207316 1.2207316 l -0.010742,-4.162e-4 c -0.00591,-2.289e-4 -0.081055,-0.00992 -0.1669922,-0.021545 z"
       id="path919"
       transform="matrix(0.26458333,0,0,0.26458333,65.785912,92.027451)" />
    <path
       style="opacity:0.92;fill:#000000;fill-opacity:0.921569;stroke:#000000;stroke-width:0.000390625;stroke-miterlimit:4;stroke-dasharray:none;paint-order:fill markers stroke"
       d="M 5.6469787,7.4518928 C 5.5163939,7.433495 4.2327108,7.2671023 3.4516662,7.1673334 3.3077209,7.1489462 3.1851134,7.1329222 3.1792052,7.1317245 3.1714795,7.1301583 3.1684481,7.127166 3.1684097,7.1210681 3.1682746,7.099561 3.1647711,7.0964167 3.1153112,7.0734101 2.9913092,7.0157298 2.9254236,6.9526397 2.887862,6.8556115 2.8605641,6.7850961 2.8507571,6.7635622 2.4614156,5.9192301 2.0926812,5.1195869 2.0507929,5.0277857 2.0534452,5.0251332 c 0.00131,-0.00131 0.8310496,-0.00284 1.8438589,-0.00339 l 1.8414715,-0.00101 v 1.2207316 1.2207316 l -0.012695,-4.75e-4 c -0.00698,-2.614e-4 -0.042578,-0.00469 -0.079102,-0.00983 z"
       id="path921"
       transform="matrix(0.26458333,0,0,0.26458333,65.785912,92.027451)" />
    <path
       style="opacity:0.92;fill:#000000;fill-opacity:0.921569;stroke:#000000;stroke-width:0.000390625;stroke-miterlimit:4;stroke-dasharray:none;paint-order:fill markers stroke"
       d="M 5.6313537,7.4500314 C 5.449319,7.4248681 4.2685802,7.2718612 3.5102599,7.1751679 3.3319396,7.1524303 3.1820861,7.13297 3.1772521,7.1319228 c -0.00632,-0.00137 -0.00879,-0.0047 -0.00879,-0.011852 0,-0.018553 -0.00796,-0.025338 -0.056847,-0.048443 C 3.0221011,7.0293194 2.9587068,6.9800368 2.9222519,6.9244168 2.9121524,6.9090077 2.894159,6.8720937 2.8822667,6.8423855 2.8548201,6.7738217 2.8255061,6.7095749 2.4476893,5.8899332 2.0656748,5.0611846 2.0505581,5.0280205 2.0534831,5.0250954 c 0.00129,-0.00129 0.8310117,-0.0028 1.843821,-0.00335 l 1.8414715,-0.00101 V 6.241467 7.4621986 l -0.012695,-4.14e-4 c -0.00698,-2.277e-4 -0.049609,-0.00552 -0.094727,-0.011753 z"
       id="path923"
       transform="matrix(0.26458333,0,0,0.26458333,65.785912,92.027451)" />
    <path
       style="opacity:0.92;fill:#000000;fill-opacity:0.921569;stroke:#000000;stroke-width:0.000390625;stroke-miterlimit:4;stroke-dasharray:none;paint-order:fill markers stroke"
       d="M 5.6157287,7.4481207 C 5.3824109,7.4163291 4.3323848,7.2803273 3.4633849,7.1693443 3.3108459,7.149863 3.182435,7.1331327 3.1780274,7.1321658 c -0.00574,-0.00126 -0.00906,-0.0065 -0.011719,-0.01848 l -0.00371,-0.016722 -0.058637,-0.029297 C 3.0299563,7.0306896 3.0029433,7.0122425 2.9614318,6.9703312 2.9216966,6.9302133 2.9094251,6.9101553 2.8795882,6.836557 2.8495344,6.762424 2.8252798,6.709342 2.3881489,5.761027 2.0709383,5.0728679 2.0505406,5.0280379 2.0533574,5.0252211 c 0.00136,-0.00136 0.8311374,-0.00293 1.8439467,-0.00348 l 1.8414715,-0.00101 v 1.2207316 1.2207316 l -0.012695,-3.859e-4 c -0.00698,-2.121e-4 -0.056641,-0.00637 -0.1103515,-0.013692 z"
       id="path925"
       transform="matrix(0.26458333,0,0,0.26458333,65.785912,92.027451)" />
    <path
       style="opacity:0.92;fill:#b09c5a;fill-opacity:1;stroke:url(#meshgradient2923);stroke-width:0;stroke-miterlimit:4;stroke-dasharray:none;paint-order:fill markers stroke"
       d="M 0.25790731,15.927313 C 0.08840347,15.81883 0.04088042,15.740617 0.0270145,15.547311 0.00943822,15.302278 0.0693667,15.137618 0.49647727,14.257411 0.69095682,13.856619 1.2778465,12.616224 1.8006766,11.500978 2.99946,8.9438593 3.0050767,8.9328982 3.1561087,8.8558473 3.3510126,8.7564149 4.5029162,8.6162227 8.09406,8.2548757 9.1104824,8.1526016 9.9485447,8.0624789 9.9564204,8.0546028 9.9642962,8.046727 9.9168352,8.0311671 9.8509517,8.0200251 9.3486414,7.935076 5.9136165,7.4613789 5.7999165,7.4613789 c -0.03808,0 -0.044986,-0.1872495 -0.044986,-1.2198005 V 5.0217778 L 3.9093882,5.0216828 2.0638458,5.0215877 1.1000032,2.938505 C 0.14387939,0.872128 0.13606431,0.85354312 0.12413855,0.61782262 0.10432953,0.22628458 0.25457735,0.03168469 0.57668736,0.03168469 c 0.16439236,0 0.48405184,0.15618052 7.65192774,3.73860951 5.9846939,2.9910868 7.4996109,3.7603209 7.5766069,3.8471961 0.117374,0.1324361 0.18336,0.2832228 0.18336,0.4190059 0,0.1416512 -0.113958,0.3626727 -0.232946,0.4517977 -0.05485,0.041084 -1.354379,0.6942011 -2.887842,1.4513712 -1.533464,0.7571709 -4.8932006,2.4210209 -7.4660819,3.6974459 -4.2584499,2.112648 -4.69459166,2.322129 -4.86336051,2.335903 -0.14675677,0.01198 -0.2052041,0.0025 -0.28044428,-0.0457 z"
       id="path927"
       transform="matrix(0.26458333,0,0,0.26458333,65.785912,92.027451)" />
    <path
       style="opacity:0.92;fill:#a39154;fill-opacity:0.992157;stroke:#000000;stroke-width:0;stroke-miterlimit:4;stroke-dasharray:none;stroke-opacity:1;paint-order:fill markers stroke"
       d="M 4.3608728,7.2953569 C 3.7074082,7.2083778 3.1656267,7.1270966 3.1569138,7.1147319 3.148201,7.1023672 3.0958452,7.0659553 3.0405677,7.0338166 2.9532937,6.983075 2.8826811,6.8499222 2.5041703,6.0223426 2.2644293,5.4981706 2.0628746,5.0586095 2.0562711,5.0455402 c -0.0066,-0.013069 0.8228933,-0.023762 1.8433265,-0.023762 h 1.855333 V 6.2415784 7.4613789 L 5.6519604,7.4574398 C 5.5953268,7.4552733 5.0143374,7.382336 4.3608728,7.2953569 Z"
       id="path2945"
       transform="matrix(0.26458333,0,0,0.26458333,65.785912,92.027451)" />
    <path
       style="opacity:0.92;fill:#a39154;fill-opacity:0.992157;stroke:#000000;stroke-width:0;stroke-miterlimit:4;stroke-dasharray:none;stroke-opacity:1;paint-order:fill markers stroke"
       d="M 5.6123565,7.4395709 C 5.5600793,7.4327983 5.2321589,7.3914246 4.8836445,7.3476292 3.5024008,7.1740582 3.1866897,7.1189306 3.0717253,7.0312431 2.9497742,6.9382264 2.8924882,6.8305836 2.4238488,5.8138561 L 2.0806623,5.0693025 2.7851245,5.0496286 C 3.1725787,5.0388079 3.9970997,5.0281148 4.6173934,5.0258662 L 5.7452,5.0217778 5.7625922,6.0118757 c 0.016848,0.9591167 0.00461,1.4545626 -0.035681,1.4447561 -0.010728,-0.00261 -0.062277,-0.010288 -0.1145547,-0.017061 z"
       id="path2947"
       transform="matrix(0.26458333,0,0,0.26458333,65.785912,92.027451)" />
    <path
       style="opacity:0.92;fill:#a39154;fill-opacity:0.992157;stroke:#000000;stroke-width:0;stroke-miterlimit:4;stroke-dasharray:none;stroke-opacity:1;paint-order:fill markers stroke"
       d="M 0.22836044,15.890792 C 0.09474136,15.802709 0.05436206,15.709442 0.05308966,15.485957 0.051698,15.241522 0.10553602,15.102969 0.62280399,14.019787 0.83500395,13.575431 1.3409758,12.506125 1.7471859,11.643552 2.8487418,9.3044358 2.8644854,9.2717496 2.9856147,9.0723489 3.0869356,8.9055569 3.1137335,8.8830251 3.2620169,8.8399494 3.5863314,8.7457374 4.3940536,8.6487737 7.6083937,8.3181855 8.7933428,8.1963161 9.8127476,8.0875156 9.8737376,8.0764071 9.9722595,8.0584624 9.9770664,8.0533323 9.9168333,8.0304137 9.8084067,7.9891572 6.0517502,7.4613789 5.8665201,7.4613789 c -0.072859,0 -0.077609,-0.011531 -0.088095,-0.2138611 L 5.7673415,7.0336567 5.761136,7.2489534 5.7549306,7.4642504 5.6519604,7.4467981 C 5.5953268,7.4371996 5.2567133,7.3931877 4.899486,7.3489938 3.890147,7.2241255 3.2307111,7.1198858 3.1341175,7.0699354 2.9644327,6.9821881 2.9525178,6.9611172 2.4238406,5.8138561 L 2.0807378,5.0693025 2.7693207,5.0528463 3.4579036,5.0363901 2.7636642,5.0211632 2.0694249,5.0059363 1.2198233,3.1683147 C 0.1745463,0.90746271 0.14701635,0.84070743 0.14701635,0.5669467 c 0,-0.25731422 0.0632974,-0.40208371 0.20525606,-0.4694475 0.17017891,-0.08075517 0.281217,-0.06020176 0.70679939,0.13083019 0.4667356,0.2095045 11.6752702,5.80124581 13.4390402,6.70450081 0.801797,0.4106134 1.224061,0.6446212 1.301764,0.7214033 0.199891,0.1975222 0.219178,0.4481126 0.05372,0.698 -0.09019,0.1362162 -0.06465,0.1232591 -7.70659,3.9093585 -6.2282074,3.085683 -7.20048467,3.562471 -7.42931181,3.643206 -0.18562316,0.06549 -0.3770495,0.06001 -0.48933475,-0.01401 z"
       id="path2949"
       transform="matrix(0.26458333,0,0,0.26458333,65.785912,92.027451)" />
    <path
       style="opacity:0.92;fill:#a39154;fill-opacity:0.992157;stroke:#000000;stroke-width:0;stroke-miterlimit:4;stroke-dasharray:none;stroke-opacity:1;paint-order:fill markers stroke"
       d="M 0.22836044,15.890792 C 0.17725821,15.857105 0.11716944,15.796605 0.09482983,15.756347 0.04410593,15.664939 0.04004759,15.332286 0.08790664,15.18887 0.10767347,15.129636 0.5371695,14.204341 1.0423423,13.132659 3.2198438,8.5132713 3.0127971,8.9135803 3.2629915,8.839208 3.580631,8.7447869 4.274113,8.6635117 8.6856202,8.2036818 9.2780947,8.1419256 9.8056189,8.08034 9.857896,8.0668243 9.9403986,8.0454945 9.9445808,8.0396018 9.8895792,8.0221856 9.8149496,7.9985538 7.7323217,7.7010447 6.5880835,7.5505578 L 5.7895552,7.4455374 5.7777782,7.3188049 5.766001,7.1920723 5.7604659,7.3267256 c -0.00304,0.074059 -0.010178,0.1346533 -0.015853,0.1346533 -0.043076,0 -1.800323,-0.2365367 -2.1206629,-0.2854548 C 3.0587365,7.0896116 3.0219005,7.0664288 2.8254166,6.6733602 2.7296425,6.4817631 2.1482224,5.2332314 2.0894999,5.0930649 2.0766702,5.0624416 2.1940152,5.0519291 2.6069901,5.0467052 L 3.1410722,5.0399494 2.6043895,5.0229428 2.0677067,5.0059363 1.2832313,3.3108888 C 0.17294565,0.91185012 0.17024889,0.90540805 0.15405523,0.61349508 0.13748277,0.31475374 0.19871829,0.157454 0.35739878,0.09115307 0.53096435,0.01863274 0.63868231,0.03964237 1.0590718,0.22800942 1.5165329,0.43298744 13.084548,6.2045877 14.656677,7.0122281 c 0.681157,0.3499269 1.067277,0.5667383 1.143348,0.6420054 0.204495,0.2023336 0.220121,0.4810469 0.04033,0.71926 -0.09077,0.1202578 -1.145109,0.6524403 -8.7705695,4.4269715 -4.8775064,2.41432 -5.7136087,2.824554 -6.17171096,3.028151 -0.32183775,0.143037 -0.5192427,0.161364 -0.6697091,0.06218 z"
       id="path2951"
       transform="matrix(0.26458333,0,0,0.26458333,65.785912,92.027451)" />
    <path
       style="opacity:0.92;fill:#a39154;fill-opacity:0.992157;stroke:#000000;stroke-width:0;stroke-miterlimit:4;stroke-dasharray:none;stroke-opacity:1;paint-order:fill markers stroke"
       d="M 0.22836044,15.890792 C 0.09349057,15.801885 0.05428067,15.709056 0.05366941,15.477211 0.05298379,15.217161 0.07014213,15.175809 0.94761838,13.322758 1.3230668,12.529888 1.9081035,11.292643 2.2477,10.573325 2.914371,9.1612125 3.0352275,8.9350156 3.1569335,8.8715878 3.3401187,8.7761199 4.2185801,8.6645836 7.2757209,8.348634 9.8791231,8.0795773 9.9439886,8.0716195 9.8702059,8.0303285 9.8247463,8.0048882 7.7533365,7.7044808 6.4614017,7.5359645 l -0.6717455,-0.08762 -0.012292,-0.096453 -0.012292,-0.096453 -0.00507,0.1029702 c -0.00279,0.056634 -0.010673,0.1029701 -0.01752,0.1029701 -0.054587,0 -2.0334997,-0.2666753 -2.2687356,-0.3057314 C 3.0820961,7.0906223 3.0077721,7.0347329 2.8225785,6.6659904 2.6787969,6.3797042 2.0796874,5.0894156 2.0796874,5.0660427 c 0,-0.00692 0.1817819,-0.015492 0.4039599,-0.01905 L 2.8876072,5.0405238 2.4763937,5.0232302 2.0651802,5.0059363 1.2658571,3.2792056 C 0.22211241,1.0244653 0.14701635,0.84259254 0.14701635,0.56952054 c 0,-0.35066224 0.1292657,-0.52199428 0.39383149,-0.52199428 0.0635137,0 0.25925825,0.06413012 0.45305801,0.14843155 C 1.3897619,0.36815216 14.803169,7.0704468 15.370761,7.3796596 c 0.210746,0.1148105 0.419418,0.2532442 0.468196,0.3106037 0.184064,0.2164439 0.175689,0.4852832 -0.02197,0.7051958 C 15.710403,8.5140494 14.78311,8.9823258 8.0202744,12.332746 3.5423572,14.551181 1.1523717,15.724488 0.84864851,15.853488 0.57338417,15.9704 0.36787388,15.98276 0.22836044,15.890792 Z"
       id="path2953"
       transform="matrix(0.26458333,0,0,0.26458333,65.785912,92.027451)" />
    <path
       style="opacity:0.92;fill:#a39154;fill-opacity:0.992157;stroke:#000000;stroke-width:0;stroke-miterlimit:4;stroke-dasharray:none;stroke-opacity:1;paint-order:fill markers stroke"
       d="M 0.23454324,15.902862 C 0.02772727,15.790644 -0.01031619,15.436382 0.14346824,15.054767 0.25014921,14.790039 2.64862,9.7048146 2.8656753,9.283159 3.038034,8.948332 3.106606,8.8713698 3.2720836,8.8270255 3.5724286,8.7465393 4.4463228,8.6421772 7.4024534,8.3337692 9.6077926,8.1036898 9.9036012,8.0667482 9.837379,8.0296885 9.7774789,7.9961668 6.0103787,7.4613789 5.8341479,7.4613789 c -0.02372,0 -0.049306,-0.032079 -0.056858,-0.071287 l -0.01373,-0.071287 -0.00431,0.071287 c -0.00237,0.039208 -0.017429,0.071287 -0.033459,0.071287 -0.064408,0 -1.9713311,-0.2579612 -2.2520411,-0.3046472 C 3.0823625,7.091639 3.0082387,7.0356622 2.8217625,6.6643657 2.6676781,6.3575653 2.0796874,5.0945321 2.0796874,5.0703516 c 0,-0.00803 0.1390097,-0.019257 0.3089105,-0.024954 L 2.6975084,5.0350398 2.3892418,5.0284088 2.0809752,5.0217778 2.0198045,4.9018734 C 1.9220711,4.7103 0.42322593,1.4548079 0.28809248,1.1405943 0.08680396,0.6725563 0.09872093,0.24142525 0.31661913,0.10855887 0.46264995,0.01951462 0.61336296,0.03326031 0.92800671,0.16432008 1.2299495,0.29008951 13.709988,6.5155637 14.941716,7.1548424 c 0.473115,0.245551 0.786286,0.4283173 0.861695,0.5028848 0.150419,0.1487406 0.202664,0.3240494 0.149478,0.5015697 -0.08188,0.2732948 -0.06987,0.2662596 -2.657373,1.5559259 C 7.4220982,12.642653 1.295468,15.664115 0.84864851,15.853626 0.59019774,15.963244 0.3772877,15.980314 0.23454324,15.902862 Z"
       id="path2955"
       transform="matrix(0.26458333,0,0,0.26458333,65.785912,92.027451)" />
    <path
       style="opacity:0.92;fill:#a39154;fill-opacity:0.992157;stroke:#000000;stroke-width:0;stroke-miterlimit:4;stroke-dasharray:none;stroke-opacity:1;paint-order:fill markers stroke"
       d="M 0.23454324,15.902862 C 0.03806778,15.796255 -0.00801738,15.446701 0.12735152,15.089816 0.20566319,14.883356 2.5166517,9.9756822 2.8262945,9.3582721 3.0261293,8.959813 3.0985288,8.8735344 3.2720836,8.8270255 3.5778701,8.7450812 4.5317627,8.629831 7.2281962,8.349044 9.012957,8.163192 9.8133762,8.0709145 9.8358763,8.0484145 9.8565216,8.0277691 9.730456,8.0032172 9.1925503,7.9231229 8.1696946,7.7708198 5.9181354,7.4613789 5.8327995,7.4613789 c -0.022847,0 -0.04806,-0.02495 -0.056029,-0.055445 -0.0138,-0.052805 -0.014665,-0.052805 -0.018165,0 -0.00202,0.030495 -0.023729,0.055445 -0.04824,0.055445 -0.063611,0 -1.8772905,-0.2457768 -2.235039,-0.3028764 C 3.0750904,7.0946217 3.0122503,7.0440643 2.7955205,6.6115708 2.6254719,6.2722318 2.0796874,5.0972471 2.0796874,5.0704995 c 0,-0.00784 0.1033662,-0.019183 0.2297027,-0.025197 l 0.2297027,-0.010935 -0.229169,-0.0063 -0.229169,-0.0063 -0.076671,-0.1513024 C 1.9198328,4.7042134 0.87383445,2.4439681 0.51989516,1.6633659 0.19297541,0.94235458 0.14701635,0.80741425 0.14701635,0.568557 c 0,-0.37822906 0.14170655,-0.54333561 0.44088988,-0.51369403 0.20800276,0.02060787 0.50577487,0.1658861 7.51157607,3.66477783 6.8221107,3.4071516 7.5254807,3.7662482 7.7013647,3.9318369 0.145017,0.1365287 0.204922,0.3256611 0.158055,0.4990093 -0.07706,0.2850332 -0.01792,0.2507242 -2.942289,1.7069392 C 6.6966651,13.004504 1.1944029,15.715538 0.81050161,15.871531 c -0.22433133,0.09115 -0.44371056,0.103088 -0.57595837,0.03133 z"
       id="path2957"
       transform="matrix(0.26458333,0,0,0.26458333,65.785912,92.027451)" />
    <path
       style="opacity:0.92;fill:#a39154;fill-opacity:0.992157;stroke:#000000;stroke-width:0;stroke-miterlimit:4;stroke-dasharray:none;stroke-opacity:1;paint-order:fill markers stroke"
       d="m 0.23454324,15.904641 c -0.12472872,-0.07024 -0.18257628,-0.204935 -0.18257628,-0.425133 0,-0.29136 -0.09748276,-0.0684 1.61486684,-3.693382 C 2.8762608,9.2258176 3.0096867,8.9620181 3.1332258,8.8868895 3.318384,8.7742883 3.8741908,8.7004904 7.0697805,8.3642085 8.1501753,8.2505151 9.1975027,8.136313 9.3971745,8.1104259 c 0.1996722,-0.025887 0.3838304,-0.047067 0.4092406,-0.047067 0.089011,0 0.013462,-0.031521 -0.1497247,-0.062468 C 9.4458325,7.9609018 7.2644974,7.6486665 6.4365817,7.5399655 6.0883226,7.4942407 5.7942072,7.4419825 5.7829923,7.423836 5.7697627,7.4024303 5.7579329,7.404847 5.7493097,7.430717 5.7390199,7.4615865 5.5360182,7.4441693 4.850426,7.3535948 3.4184413,7.1644136 3.192551,7.1234014 3.0707139,7.0304716 2.9982076,6.9751683 2.9068206,6.8335866 2.7798589,6.579863 2.592215,6.204871 2.0796874,5.1015151 2.0796874,5.0725523 c 0,-0.00868 0.074851,-0.021016 0.1663364,-0.027416 L 2.4123602,5.0334993 2.238103,5.0273436 2.0638458,5.0211879 1.7019943,4.2373254 C 0.13099814,0.83414718 0.14701635,0.87189148 0.14701635,0.57327287 c 0,-0.38318795 0.14049583,-0.54833718 0.44088988,-0.51825473 0.21217166,0.02124757 0.52787077,0.1751534 7.49573447,3.65422996 6.7775783,3.3840663 7.5361823,3.7715843 7.7172973,3.9422296 0.220766,0.2080052 0.230019,0.5110252 0.02281,0.7470236 -0.08022,0.091361 -0.704254,0.4139839 -3.317475,1.7151087 -3.2117496,1.599133 -3.9482471,1.963822 -8.4622315,4.190212 -3.24350693,1.599764 -3.29881791,1.625422 -3.53266914,1.638791 -0.12986614,0.0074 -0.21757922,-0.0046 -0.27682912,-0.03797 z"
       id="path2959"
       transform="matrix(0.26458333,0,0,0.26458333,65.785912,92.027451)" />
    <path
       style="opacity:0.92;fill:#a39154;fill-opacity:0.992157;stroke:#000000;stroke-width:0;stroke-miterlimit:4;stroke-dasharray:none;stroke-opacity:1;paint-order:fill markers stroke"
       d="M 0.23454324,15.902862 C 0.03814898,15.796299 -0.00797652,15.446872 0.12721863,15.089816 0.2431938,14.783521 2.4091508,10.185609 2.8153058,9.383522 2.9798238,9.058627 3.0619986,8.9302054 3.1330077,8.8870223 3.3113985,8.7785364 3.97924,8.687006 6.5945335,8.412606 8.3081841,8.2328077 9.8213977,8.0627688 9.8358611,8.0483802 9.8567022,8.0276462 8.1139013,7.7680216 6.4205792,7.5396065 6.0718382,7.492564 5.7927979,7.4401741 5.7794809,7.4192397 c -0.016924,-0.026605 -0.023717,-0.024859 -0.024065,0.00619 -3.802e-4,0.03395 -0.039674,0.038728 -0.182663,0.022211 C 5.2200002,7.4068903 3.5505903,7.1765137 3.3566446,7.1418165 3.0770296,7.091793 2.9783476,6.9917941 2.7496553,6.5267263 2.5537073,6.1282475 2.0796874,5.0995767 2.0796874,5.0728289 c 0,-0.00855 0.053465,-0.021136 0.1188117,-0.027971 L 2.3173108,5.03243 2.1901503,5.0271038 2.0629898,5.0217778 1.3058465,3.3821758 C 0.20931751,1.0076305 0.1670917,0.90634496 0.15272631,0.61622595 0.1381433,0.32171207 0.19253682,0.16981531 0.33986603,0.09362841 0.50966895,0.00581991 0.68311562,0.04609656 1.2242428,0.29899259 1.9199264,0.62412062 14.39379,6.8556995 15.099025,7.2304301 c 0.32104,0.1705861 0.636701,0.3600576 0.701467,0.4210476 0.152201,0.1433253 0.207315,0.3178724 0.15809,0.5006771 -0.07832,0.2908569 0.0375,0.2256961 -3.770535,2.1212472 -5.912772,2.943236 -10.9274653,5.412211 -11.36680943,5.596427 -0.22282509,0.09343 -0.45163851,0.106313 -0.58669433,0.03303 z"
       id="path2961"
       transform="matrix(0.26458333,0,0,0.26458333,65.785912,92.027451)" />
    <path
       style="opacity:0.92;fill:#a39154;fill-opacity:0.992157;stroke:#000000;stroke-width:0;stroke-miterlimit:4;stroke-dasharray:none;stroke-opacity:1;paint-order:fill markers stroke"
       d="M 0.21751368,15.888959 C 0.16044573,15.854165 0.09985174,15.789131 0.08286037,15.744441 0.02715806,15.597932 0.04721846,15.301119 0.12710374,15.089816 0.25526356,14.750823 2.3439396,10.315251 2.7991784,9.4153217 2.9774854,9.0628396 3.0608098,8.9309284 3.132816,8.8871389 3.3041311,8.7829558 3.9102962,8.6955487 5.992554,8.4747731 7.8928728,8.273288 9.7911105,8.0614971 9.8029724,8.0496355 9.8246738,8.0279338 8.3579387,7.8062755 6.6427239,7.5720472 6.1813085,7.5090364 5.7945199,7.4424885 5.7831938,7.4241627 5.769597,7.4021619 5.7581423,7.4042188 5.7494763,7.4302167 5.7371826,7.4670981 5.4597702,7.4487599 5.010377,7.3813594 4.9580998,7.3735188 4.6016646,7.3238029 4.2182987,7.2708794 3.1165857,7.1187892 3.0746502,7.1055055 2.9192895,6.8593982 2.8430058,6.7385568 2.1365593,5.2461023 2.0977215,5.1237354 c -0.017235,-0.054303 -0.00542,-0.068119 0.067671,-0.079127 l 0.088552,-0.013336 -0.096502,-0.00475 C 2.0505327,5.0212658 2.0985022,5.1180296 0.81217546,2.3128701 0.20007843,0.97803843 0.14701635,0.83771961 0.14701635,0.55390507 c 0,-0.3707269 0.13985337,-0.52840185 0.44285417,-0.49928731 C 0.80779755,0.07555779 1.37707,0.35308987 8.3212642,3.8238317 15.07261,7.1981869 15.6658,7.5020968 15.820149,7.66575 c 0.138715,0.1470766 0.190016,0.3273647 0.140336,0.4931831 -0.08641,0.288403 0.04945,0.2129633 -4.137545,2.2974919 C 5.7704661,13.469695 1.1431997,15.7462 0.77926309,15.88965 0.57247768,15.97116 0.35188616,15.97089 0.21751368,15.888959 Z"
       id="path2963"
       transform="matrix(0.26458333,0,0,0.26458333,65.785912,92.027451)"
       inkscape:export-xdpi="96"
       inkscape:export-ydpi="96" />
  </g>
  <script
     id="mesh_polyfill"
     type="text/javascript">
!function(){const t=&quot;http://www.w3.org/2000/svg&quot;,e=&quot;http://www.w3.org/1999/xlink&quot;,s=&quot;http://www.w3.org/1999/xhtml&quot;,r=2;if(document.createElementNS(t,&quot;meshgradient&quot;).x)return;const n=(t,e,s,r)=&gt;{let n=new x(.5*(e.x+s.x),.5*(e.y+s.y)),o=new x(.5*(t.x+e.x),.5*(t.y+e.y)),i=new x(.5*(s.x+r.x),.5*(s.y+r.y)),a=new x(.5*(n.x+o.x),.5*(n.y+o.y)),h=new x(.5*(n.x+i.x),.5*(n.y+i.y)),l=new x(.5*(a.x+h.x),.5*(a.y+h.y));return[[t,o,a,l],[l,h,i,r]]},o=t=&gt;{let e=t[0].distSquared(t[1]),s=t[2].distSquared(t[3]),r=.25*t[0].distSquared(t[2]),n=.25*t[1].distSquared(t[3]),o=e&gt;s?e:s,i=r&gt;n?r:n;return 18*(o&gt;i?o:i)},i=(t,e)=&gt;Math.sqrt(t.distSquared(e)),a=(t,e)=&gt;t.scale(2/3).add(e.scale(1/3)),h=t=&gt;{let e,s,r,n,o,i,a,h=new g;return t.match(/(\w+\(\s*[^)]+\))+/g).forEach(t=&gt;{let l=t.match(/[\w.-]+/g),d=l.shift();switch(d){case&quot;translate&quot;:2===l.length?e=new g(1,0,0,1,l[0],l[1]):(console.error(&quot;mesh.js: translate does not have 2 arguments!&quot;),e=new g(1,0,0,1,0,0)),h=h.append(e);break;case&quot;scale&quot;:1===l.length?s=new g(l[0],0,0,l[0],0,0):2===l.length?s=new g(l[0],0,0,l[1],0,0):(console.error(&quot;mesh.js: scale does not have 1 or 2 arguments!&quot;),s=new g(1,0,0,1,0,0)),h=h.append(s);break;case&quot;rotate&quot;:if(3===l.length&amp;&amp;(e=new g(1,0,0,1,l[1],l[2]),h=h.append(e)),l[0]){r=l[0]*Math.PI/180;let t=Math.cos(r),e=Math.sin(r);Math.abs(t)&lt;1e-16&amp;&amp;(t=0),Math.abs(e)&lt;1e-16&amp;&amp;(e=0),a=new g(t,e,-e,t,0,0),h=h.append(a)}else console.error(&quot;math.js: No argument to rotate transform!&quot;);3===l.length&amp;&amp;(e=new g(1,0,0,1,-l[1],-l[2]),h=h.append(e));break;case&quot;skewX&quot;:l[0]?(r=l[0]*Math.PI/180,n=Math.tan(r),o=new g(1,0,n,1,0,0),h=h.append(o)):console.error(&quot;math.js: No argument to skewX transform!&quot;);break;case&quot;skewY&quot;:l[0]?(r=l[0]*Math.PI/180,n=Math.tan(r),i=new g(1,n,0,1,0,0),h=h.append(i)):console.error(&quot;math.js: No argument to skewY transform!&quot;);break;case&quot;matrix&quot;:6===l.length?h=h.append(new g(...l)):console.error(&quot;math.js: Incorrect number of arguments for matrix!&quot;);break;default:console.error(&quot;mesh.js: Unhandled transform type: &quot;+d)}}),h},l=t=&gt;{let e=[],s=t.split(/[ ,]+/);for(let t=0,r=s.length-1;t&lt;r;t+=2)e.push(new x(parseFloat(s[t]),parseFloat(s[t+1])));return e},d=(t,e)=&gt;{for(let s in e)t.setAttribute(s,e[s])},c=(t,e,s,r,n)=&gt;{let o,i,a=[0,0,0,0];for(let h=0;h&lt;3;++h)e[h]&lt;t[h]&amp;&amp;e[h]&lt;s[h]||t[h]&lt;e[h]&amp;&amp;s[h]&lt;e[h]?a[h]=0:(a[h]=.5*((e[h]-t[h])/r+(s[h]-e[h])/n),o=Math.abs(3*(e[h]-t[h])/r),i=Math.abs(3*(s[h]-e[h])/n),a[h]&gt;o?a[h]=o:a[h]&gt;i&amp;&amp;(a[h]=i));return a},u=[[1,0,0,0,0,0,0,0,0,0,0,0,0,0,0,0],[0,0,0,0,1,0,0,0,0,0,0,0,0,0,0,0],[-3,3,0,0,-2,-1,0,0,0,0,0,0,0,0,0,0],[2,-2,0,0,1,1,0,0,0,0,0,0,0,0,0,0],[0,0,0,0,0,0,0,0,1,0,0,0,0,0,0,0],[0,0,0,0,0,0,0,0,0,0,0,0,1,0,0,0],[0,0,0,0,0,0,0,0,-3,3,0,0,-2,-1,0,0],[0,0,0,0,0,0,0,0,2,-2,0,0,1,1,0,0],[-3,0,3,0,0,0,0,0,-2,0,-1,0,0,0,0,0],[0,0,0,0,-3,0,3,0,0,0,0,0,-2,0,-1,0],[9,-9,-9,9,6,3,-6,-3,6,-6,3,-3,4,2,2,1],[-6,6,6,-6,-3,-3,3,3,-4,4,-2,2,-2,-2,-1,-1],[2,0,-2,0,0,0,0,0,1,0,1,0,0,0,0,0],[0,0,0,0,2,0,-2,0,0,0,0,0,1,0,1,0],[-6,6,6,-6,-4,-2,4,2,-3,3,-3,3,-2,-1,-2,-1],[4,-4,-4,4,2,2,-2,-2,2,-2,2,-2,1,1,1,1]],f=t=&gt;{let e=[];for(let s=0;s&lt;16;++s){e[s]=0;for(let r=0;r&lt;16;++r)e[s]+=u[s][r]*t[r]}return e},p=(t,e,s)=&gt;{const r=e*e,n=s*s,o=e*e*e,i=s*s*s;return t[0]+t[1]*e+t[2]*r+t[3]*o+t[4]*s+t[5]*s*e+t[6]*s*r+t[7]*s*o+t[8]*n+t[9]*n*e+t[10]*n*r+t[11]*n*o+t[12]*i+t[13]*i*e+t[14]*i*r+t[15]*i*o},y=t=&gt;{let e=[],s=[],r=[];for(let s=0;s&lt;4;++s)e[s]=[],e[s][0]=n(t[0][s],t[1][s],t[2][s],t[3][s]),e[s][1]=[],e[s][1].push(...n(...e[s][0][0])),e[s][1].push(...n(...e[s][0][1])),e[s][2]=[],e[s][2].push(...n(...e[s][1][0])),e[s][2].push(...n(...e[s][1][1])),e[s][2].push(...n(...e[s][1][2])),e[s][2].push(...n(...e[s][1][3]));for(let t=0;t&lt;8;++t){s[t]=[];for(let r=0;r&lt;4;++r)s[t][r]=[],s[t][r][0]=n(e[0][2][t][r],e[1][2][t][r],e[2][2][t][r],e[3][2][t][r]),s[t][r][1]=[],s[t][r][1].push(...n(...s[t][r][0][0])),s[t][r][1].push(...n(...s[t][r][0][1])),s[t][r][2]=[],s[t][r][2].push(...n(...s[t][r][1][0])),s[t][r][2].push(...n(...s[t][r][1][1])),s[t][r][2].push(...n(...s[t][r][1][2])),s[t][r][2].push(...n(...s[t][r][1][3]))}for(let t=0;t&lt;8;++t){r[t]=[];for(let e=0;e&lt;8;++e)r[t][e]=[],r[t][e][0]=s[t][0][2][e],r[t][e][1]=s[t][1][2][e],r[t][e][2]=s[t][2][2][e],r[t][e][3]=s[t][3][2][e]}return r};class x{constructor(t,e){this.x=t||0,this.y=e||0}toString(){return`(x=${this.x}, y=${this.y})`}clone(){return new x(this.x,this.y)}add(t){return new x(this.x+t.x,this.y+t.y)}scale(t){return void 0===t.x?new x(this.x*t,this.y*t):new x(this.x*t.x,this.y*t.y)}distSquared(t){let e=this.x-t.x,s=this.y-t.y;return e*e+s*s}transform(t){let e=this.x*t.a+this.y*t.c+t.e,s=this.x*t.b+this.y*t.d+t.f;return new x(e,s)}}class g{constructor(t,e,s,r,n,o){void 0===t?(this.a=1,this.b=0,this.c=0,this.d=1,this.e=0,this.f=0):(this.a=t,this.b=e,this.c=s,this.d=r,this.e=n,this.f=o)}toString(){return`affine: ${this.a} ${this.c} ${this.e} \n       ${this.b} ${this.d} ${this.f}`}append(t){t instanceof g||console.error(&quot;mesh.js: argument to Affine.append is not affine!&quot;);let e=this.a*t.a+this.c*t.b,s=this.b*t.a+this.d*t.b,r=this.a*t.c+this.c*t.d,n=this.b*t.c+this.d*t.d,o=this.a*t.e+this.c*t.f+this.e,i=this.b*t.e+this.d*t.f+this.f;return new g(e,s,r,n,o,i)}}class w{constructor(t,e){this.nodes=t,this.colors=e}paintCurve(t,e){if(o(this.nodes)&gt;r){const s=n(...this.nodes);let r=[[],[]],o=[[],[]];for(let t=0;t&lt;4;++t)r[0][t]=this.colors[0][t],r[1][t]=(this.colors[0][t]+this.colors[1][t])/2,o[0][t]=r[1][t],o[1][t]=this.colors[1][t];let i=new w(s[0],r),a=new w(s[1],o);i.paintCurve(t,e),a.paintCurve(t,e)}else{let s=Math.round(this.nodes[0].x);if(s&gt;=0&amp;&amp;s&lt;e){let r=4*(~~this.nodes[0].y*e+s);t[r]=Math.round(this.colors[0][0]),t[r+1]=Math.round(this.colors[0][1]),t[r+2]=Math.round(this.colors[0][2]),t[r+3]=Math.round(this.colors[0][3])}}}}class m{constructor(t,e){this.nodes=t,this.colors=e}split(){let t=[[],[],[],[]],e=[[],[],[],[]],s=[[[],[]],[[],[]]],r=[[[],[]],[[],[]]];for(let s=0;s&lt;4;++s){const r=n(this.nodes[0][s],this.nodes[1][s],this.nodes[2][s],this.nodes[3][s]);t[0][s]=r[0][0],t[1][s]=r[0][1],t[2][s]=r[0][2],t[3][s]=r[0][3],e[0][s]=r[1][0],e[1][s]=r[1][1],e[2][s]=r[1][2],e[3][s]=r[1][3]}for(let t=0;t&lt;4;++t)s[0][0][t]=this.colors[0][0][t],s[0][1][t]=this.colors[0][1][t],s[1][0][t]=(this.colors[0][0][t]+this.colors[1][0][t])/2,s[1][1][t]=(this.colors[0][1][t]+this.colors[1][1][t])/2,r[0][0][t]=s[1][0][t],r[0][1][t]=s[1][1][t],r[1][0][t]=this.colors[1][0][t],r[1][1][t]=this.colors[1][1][t];return[new m(t,s),new m(e,r)]}paint(t,e){let s,n=!1;for(let t=0;t&lt;4;++t)if((s=o([this.nodes[0][t],this.nodes[1][t],this.nodes[2][t],this.nodes[3][t]]))&gt;r){n=!0;break}if(n){let s=this.split();s[0].paint(t,e),s[1].paint(t,e)}else{new w([...this.nodes[0]],[...this.colors[0]]).paintCurve(t,e)}}}class b{constructor(t){this.readMesh(t),this.type=t.getAttribute(&quot;type&quot;)||&quot;bilinear&quot;}readMesh(t){let e=[[]],s=[[]],r=Number(t.getAttribute(&quot;x&quot;)),n=Number(t.getAttribute(&quot;y&quot;));e[0][0]=new x(r,n);let o=t.children;for(let t=0,r=o.length;t&lt;r;++t){e[3*t+1]=[],e[3*t+2]=[],e[3*t+3]=[],s[t+1]=[];let r=o[t].children;for(let n=0,o=r.length;n&lt;o;++n){let o=r[n].children;for(let r=0,i=o.length;r&lt;i;++r){let i=r;0!==t&amp;&amp;++i;let h,d=o[r].getAttribute(&quot;path&quot;),c=&quot;l&quot;;null!=d&amp;&amp;(c=(h=d.match(/\s*([lLcC])\s*(.*)/))[1]);let u=l(h[2]);switch(c){case&quot;l&quot;:0===i?(e[3*t][3*n+3]=u[0].add(e[3*t][3*n]),e[3*t][3*n+1]=a(e[3*t][3*n],e[3*t][3*n+3]),e[3*t][3*n+2]=a(e[3*t][3*n+3],e[3*t][3*n])):1===i?(e[3*t+3][3*n+3]=u[0].add(e[3*t][3*n+3]),e[3*t+1][3*n+3]=a(e[3*t][3*n+3],e[3*t+3][3*n+3]),e[3*t+2][3*n+3]=a(e[3*t+3][3*n+3],e[3*t][3*n+3])):2===i?(0===n&amp;&amp;(e[3*t+3][3*n+0]=u[0].add(e[3*t+3][3*n+3])),e[3*t+3][3*n+1]=a(e[3*t+3][3*n],e[3*t+3][3*n+3]),e[3*t+3][3*n+2]=a(e[3*t+3][3*n+3],e[3*t+3][3*n])):(e[3*t+1][3*n]=a(e[3*t][3*n],e[3*t+3][3*n]),e[3*t+2][3*n]=a(e[3*t+3][3*n],e[3*t][3*n]));break;case&quot;L&quot;:0===i?(e[3*t][3*n+3]=u[0],e[3*t][3*n+1]=a(e[3*t][3*n],e[3*t][3*n+3]),e[3*t][3*n+2]=a(e[3*t][3*n+3],e[3*t][3*n])):1===i?(e[3*t+3][3*n+3]=u[0],e[3*t+1][3*n+3]=a(e[3*t][3*n+3],e[3*t+3][3*n+3]),e[3*t+2][3*n+3]=a(e[3*t+3][3*n+3],e[3*t][3*n+3])):2===i?(0===n&amp;&amp;(e[3*t+3][3*n+0]=u[0]),e[3*t+3][3*n+1]=a(e[3*t+3][3*n],e[3*t+3][3*n+3]),e[3*t+3][3*n+2]=a(e[3*t+3][3*n+3],e[3*t+3][3*n])):(e[3*t+1][3*n]=a(e[3*t][3*n],e[3*t+3][3*n]),e[3*t+2][3*n]=a(e[3*t+3][3*n],e[3*t][3*n]));break;case&quot;c&quot;:0===i?(e[3*t][3*n+1]=u[0].add(e[3*t][3*n]),e[3*t][3*n+2]=u[1].add(e[3*t][3*n]),e[3*t][3*n+3]=u[2].add(e[3*t][3*n])):1===i?(e[3*t+1][3*n+3]=u[0].add(e[3*t][3*n+3]),e[3*t+2][3*n+3]=u[1].add(e[3*t][3*n+3]),e[3*t+3][3*n+3]=u[2].add(e[3*t][3*n+3])):2===i?(e[3*t+3][3*n+2]=u[0].add(e[3*t+3][3*n+3]),e[3*t+3][3*n+1]=u[1].add(e[3*t+3][3*n+3]),0===n&amp;&amp;(e[3*t+3][3*n+0]=u[2].add(e[3*t+3][3*n+3]))):(e[3*t+2][3*n]=u[0].add(e[3*t+3][3*n]),e[3*t+1][3*n]=u[1].add(e[3*t+3][3*n]));break;case&quot;C&quot;:0===i?(e[3*t][3*n+1]=u[0],e[3*t][3*n+2]=u[1],e[3*t][3*n+3]=u[2]):1===i?(e[3*t+1][3*n+3]=u[0],e[3*t+2][3*n+3]=u[1],e[3*t+3][3*n+3]=u[2]):2===i?(e[3*t+3][3*n+2]=u[0],e[3*t+3][3*n+1]=u[1],0===n&amp;&amp;(e[3*t+3][3*n+0]=u[2])):(e[3*t+2][3*n]=u[0],e[3*t+1][3*n]=u[1]);break;default:console.error(&quot;mesh.js: &quot;+c+&quot; invalid path type.&quot;)}if(0===t&amp;&amp;0===n||r&gt;0){let e=window.getComputedStyle(o[r]).stopColor.match(/^rgb\s*\(\s*(\d+)\s*,\s*(\d+)\s*,\s*(\d+)\s*\)$/i),a=window.getComputedStyle(o[r]).stopOpacity,h=255;a&amp;&amp;(h=Math.floor(255*a)),e&amp;&amp;(0===i?(s[t][n]=[],s[t][n][0]=Math.floor(e[1]),s[t][n][1]=Math.floor(e[2]),s[t][n][2]=Math.floor(e[3]),s[t][n][3]=h):1===i?(s[t][n+1]=[],s[t][n+1][0]=Math.floor(e[1]),s[t][n+1][1]=Math.floor(e[2]),s[t][n+1][2]=Math.floor(e[3]),s[t][n+1][3]=h):2===i?(s[t+1][n+1]=[],s[t+1][n+1][0]=Math.floor(e[1]),s[t+1][n+1][1]=Math.floor(e[2]),s[t+1][n+1][2]=Math.floor(e[3]),s[t+1][n+1][3]=h):3===i&amp;&amp;(s[t+1][n]=[],s[t+1][n][0]=Math.floor(e[1]),s[t+1][n][1]=Math.floor(e[2]),s[t+1][n][2]=Math.floor(e[3]),s[t+1][n][3]=h))}}e[3*t+1][3*n+1]=new x,e[3*t+1][3*n+2]=new x,e[3*t+2][3*n+1]=new x,e[3*t+2][3*n+2]=new x,e[3*t+1][3*n+1].x=(-4*e[3*t][3*n].x+6*(e[3*t][3*n+1].x+e[3*t+1][3*n].x)+-2*(e[3*t][3*n+3].x+e[3*t+3][3*n].x)+3*(e[3*t+3][3*n+1].x+e[3*t+1][3*n+3].x)+-1*e[3*t+3][3*n+3].x)/9,e[3*t+1][3*n+2].x=(-4*e[3*t][3*n+3].x+6*(e[3*t][3*n+2].x+e[3*t+1][3*n+3].x)+-2*(e[3*t][3*n].x+e[3*t+3][3*n+3].x)+3*(e[3*t+3][3*n+2].x+e[3*t+1][3*n].x)+-1*e[3*t+3][3*n].x)/9,e[3*t+2][3*n+1].x=(-4*e[3*t+3][3*n].x+6*(e[3*t+3][3*n+1].x+e[3*t+2][3*n].x)+-2*(e[3*t+3][3*n+3].x+e[3*t][3*n].x)+3*(e[3*t][3*n+1].x+e[3*t+2][3*n+3].x)+-1*e[3*t][3*n+3].x)/9,e[3*t+2][3*n+2].x=(-4*e[3*t+3][3*n+3].x+6*(e[3*t+3][3*n+2].x+e[3*t+2][3*n+3].x)+-2*(e[3*t+3][3*n].x+e[3*t][3*n+3].x)+3*(e[3*t][3*n+2].x+e[3*t+2][3*n].x)+-1*e[3*t][3*n].x)/9,e[3*t+1][3*n+1].y=(-4*e[3*t][3*n].y+6*(e[3*t][3*n+1].y+e[3*t+1][3*n].y)+-2*(e[3*t][3*n+3].y+e[3*t+3][3*n].y)+3*(e[3*t+3][3*n+1].y+e[3*t+1][3*n+3].y)+-1*e[3*t+3][3*n+3].y)/9,e[3*t+1][3*n+2].y=(-4*e[3*t][3*n+3].y+6*(e[3*t][3*n+2].y+e[3*t+1][3*n+3].y)+-2*(e[3*t][3*n].y+e[3*t+3][3*n+3].y)+3*(e[3*t+3][3*n+2].y+e[3*t+1][3*n].y)+-1*e[3*t+3][3*n].y)/9,e[3*t+2][3*n+1].y=(-4*e[3*t+3][3*n].y+6*(e[3*t+3][3*n+1].y+e[3*t+2][3*n].y)+-2*(e[3*t+3][3*n+3].y+e[3*t][3*n].y)+3*(e[3*t][3*n+1].y+e[3*t+2][3*n+3].y)+-1*e[3*t][3*n+3].y)/9,e[3*t+2][3*n+2].y=(-4*e[3*t+3][3*n+3].y+6*(e[3*t+3][3*n+2].y+e[3*t+2][3*n+3].y)+-2*(e[3*t+3][3*n].y+e[3*t][3*n+3].y)+3*(e[3*t][3*n+2].y+e[3*t+2][3*n].y)+-1*e[3*t][3*n].y)/9}}this.nodes=e,this.colors=s}paintMesh(t,e){let s=(this.nodes.length-1)/3,r=(this.nodes[0].length-1)/3;if(&quot;bilinear&quot;===this.type||s&lt;2||r&lt;2){let n;for(let o=0;o&lt;s;++o)for(let s=0;s&lt;r;++s){let r=[];for(let t=3*o,e=3*o+4;t&lt;e;++t)r.push(this.nodes[t].slice(3*s,3*s+4));let i=[];i.push(this.colors[o].slice(s,s+2)),i.push(this.colors[o+1].slice(s,s+2)),(n=new m(r,i)).paint(t,e)}}else{let n,o,a,h,l,d,u;const x=s,g=r;s++,r++;let w=new Array(s);for(let t=0;t&lt;s;++t){w[t]=new Array(r);for(let e=0;e&lt;r;++e)w[t][e]=[],w[t][e][0]=this.nodes[3*t][3*e],w[t][e][1]=this.colors[t][e]}for(let t=0;t&lt;s;++t)for(let e=0;e&lt;r;++e)0!==t&amp;&amp;t!==x&amp;&amp;(n=i(w[t-1][e][0],w[t][e][0]),o=i(w[t+1][e][0],w[t][e][0]),w[t][e][2]=c(w[t-1][e][1],w[t][e][1],w[t+1][e][1],n,o)),0!==e&amp;&amp;e!==g&amp;&amp;(n=i(w[t][e-1][0],w[t][e][0]),o=i(w[t][e+1][0],w[t][e][0]),w[t][e][3]=c(w[t][e-1][1],w[t][e][1],w[t][e+1][1],n,o));for(let t=0;t&lt;r;++t){w[0][t][2]=[],w[x][t][2]=[];for(let e=0;e&lt;4;++e)n=i(w[1][t][0],w[0][t][0]),o=i(w[x][t][0],w[x-1][t][0]),w[0][t][2][e]=n&gt;0?2*(w[1][t][1][e]-w[0][t][1][e])/n-w[1][t][2][e]:0,w[x][t][2][e]=o&gt;0?2*(w[x][t][1][e]-w[x-1][t][1][e])/o-w[x-1][t][2][e]:0}for(let t=0;t&lt;s;++t){w[t][0][3]=[],w[t][g][3]=[];for(let e=0;e&lt;4;++e)n=i(w[t][1][0],w[t][0][0]),o=i(w[t][g][0],w[t][g-1][0]),w[t][0][3][e]=n&gt;0?2*(w[t][1][1][e]-w[t][0][1][e])/n-w[t][1][3][e]:0,w[t][g][3][e]=o&gt;0?2*(w[t][g][1][e]-w[t][g-1][1][e])/o-w[t][g-1][3][e]:0}for(let s=0;s&lt;x;++s)for(let r=0;r&lt;g;++r){let n=i(w[s][r][0],w[s+1][r][0]),o=i(w[s][r+1][0],w[s+1][r+1][0]),c=i(w[s][r][0],w[s][r+1][0]),x=i(w[s+1][r][0],w[s+1][r+1][0]),g=[[],[],[],[]];for(let t=0;t&lt;4;++t){(d=[])[0]=w[s][r][1][t],d[1]=w[s+1][r][1][t],d[2]=w[s][r+1][1][t],d[3]=w[s+1][r+1][1][t],d[4]=w[s][r][2][t]*n,d[5]=w[s+1][r][2][t]*n,d[6]=w[s][r+1][2][t]*o,d[7]=w[s+1][r+1][2][t]*o,d[8]=w[s][r][3][t]*c,d[9]=w[s+1][r][3][t]*x,d[10]=w[s][r+1][3][t]*c,d[11]=w[s+1][r+1][3][t]*x,d[12]=0,d[13]=0,d[14]=0,d[15]=0,u=f(d);for(let e=0;e&lt;9;++e){g[t][e]=[];for(let s=0;s&lt;9;++s)g[t][e][s]=p(u,e/8,s/8),g[t][e][s]&gt;255?g[t][e][s]=255:g[t][e][s]&lt;0&amp;&amp;(g[t][e][s]=0)}}h=[];for(let t=3*s,e=3*s+4;t&lt;e;++t)h.push(this.nodes[t].slice(3*r,3*r+4));l=y(h);for(let s=0;s&lt;8;++s)for(let r=0;r&lt;8;++r)(a=new m(l[s][r],[[[g[0][s][r],g[1][s][r],g[2][s][r],g[3][s][r]],[g[0][s][r+1],g[1][s][r+1],g[2][s][r+1],g[3][s][r+1]]],[[g[0][s+1][r],g[1][s+1][r],g[2][s+1][r],g[3][s+1][r]],[g[0][s+1][r+1],g[1][s+1][r+1],g[2][s+1][r+1],g[3][s+1][r+1]]]])).paint(t,e)}}}transform(t){if(t instanceof x)for(let e=0,s=this.nodes.length;e&lt;s;++e)for(let s=0,r=this.nodes[0].length;s&lt;r;++s)this.nodes[e][s]=this.nodes[e][s].add(t);else if(t instanceof g)for(let e=0,s=this.nodes.length;e&lt;s;++e)for(let s=0,r=this.nodes[0].length;s&lt;r;++s)this.nodes[e][s]=this.nodes[e][s].transform(t)}scale(t){for(let e=0,s=this.nodes.length;e&lt;s;++e)for(let s=0,r=this.nodes[0].length;s&lt;r;++s)this.nodes[e][s]=this.nodes[e][s].scale(t)}}document.querySelectorAll(&quot;rect,circle,ellipse,path,text&quot;).forEach((r,n)=&gt;{let o=r.getAttribute(&quot;id&quot;);o||(o=&quot;patchjs_shape&quot;+n,r.setAttribute(&quot;id&quot;,o));const i=r.style.fill.match(/^url\(\s*&quot;?\s*#([^\s&quot;]+)&quot;?\s*\)/),a=r.style.stroke.match(/^url\(\s*&quot;?\s*#([^\s&quot;]+)&quot;?\s*\)/);if(i&amp;&amp;i[1]){const a=document.getElementById(i[1]);if(a&amp;&amp;&quot;meshgradient&quot;===a.nodeName){const i=r.getBBox();let l=document.createElementNS(s,&quot;canvas&quot;);d(l,{width:i.width,height:i.height});const c=l.getContext(&quot;2d&quot;);let u=c.createImageData(i.width,i.height);const f=new b(a);&quot;objectBoundingBox&quot;===a.getAttribute(&quot;gradientUnits&quot;)&amp;&amp;f.scale(new x(i.width,i.height));const p=a.getAttribute(&quot;gradientTransform&quot;);null!=p&amp;&amp;f.transform(h(p)),&quot;userSpaceOnUse&quot;===a.getAttribute(&quot;gradientUnits&quot;)&amp;&amp;f.transform(new x(-i.x,-i.y)),f.paintMesh(u.data,l.width),c.putImageData(u,0,0);const y=document.createElementNS(t,&quot;image&quot;);d(y,{width:i.width,height:i.height,x:i.x,y:i.y});let g=l.toDataURL();y.setAttributeNS(e,&quot;xlink:href&quot;,g),r.parentNode.insertBefore(y,r),r.style.fill=&quot;none&quot;;const w=document.createElementNS(t,&quot;use&quot;);w.setAttributeNS(e,&quot;xlink:href&quot;,&quot;#&quot;+o);const m=&quot;patchjs_clip&quot;+n,M=document.createElementNS(t,&quot;clipPath&quot;);M.setAttribute(&quot;id&quot;,m),M.appendChild(w),r.parentElement.insertBefore(M,r),y.setAttribute(&quot;clip-path&quot;,&quot;url(#&quot;+m+&quot;)&quot;),u=null,l=null,g=null}}if(a&amp;&amp;a[1]){const o=document.getElementById(a[1]);if(o&amp;&amp;&quot;meshgradient&quot;===o.nodeName){const i=parseFloat(r.style.strokeWidth.slice(0,-2))*(parseFloat(r.style.strokeMiterlimit)||parseFloat(r.getAttribute(&quot;stroke-miterlimit&quot;))||1),a=r.getBBox(),l=Math.trunc(a.width+i),c=Math.trunc(a.height+i),u=Math.trunc(a.x-i/2),f=Math.trunc(a.y-i/2);let p=document.createElementNS(s,&quot;canvas&quot;);d(p,{width:l,height:c});const y=p.getContext(&quot;2d&quot;);let g=y.createImageData(l,c);const w=new b(o);&quot;objectBoundingBox&quot;===o.getAttribute(&quot;gradientUnits&quot;)&amp;&amp;w.scale(new x(l,c));const m=o.getAttribute(&quot;gradientTransform&quot;);null!=m&amp;&amp;w.transform(h(m)),&quot;userSpaceOnUse&quot;===o.getAttribute(&quot;gradientUnits&quot;)&amp;&amp;w.transform(new x(-u,-f)),w.paintMesh(g.data,p.width),y.putImageData(g,0,0);const M=document.createElementNS(t,&quot;image&quot;);d(M,{width:l,height:c,x:0,y:0});let S=p.toDataURL();M.setAttributeNS(e,&quot;xlink:href&quot;,S);const k=&quot;pattern_clip&quot;+n,A=document.createElementNS(t,&quot;pattern&quot;);d(A,{id:k,patternUnits:&quot;userSpaceOnUse&quot;,width:l,height:c,x:u,y:f}),A.appendChild(M),o.parentNode.appendChild(A),r.style.stroke=&quot;url(#&quot;+k+&quot;)&quot;,g=null,p=null,S=null}}})}();
</script>
</svg>
